<svg id="Group_62" data-name="Group 62" xmlns="http://www.w3.org/2000/svg" viewBox="0 0 157.983 22.332">
  <defs>
    <style>
      .cls-1 {
        fill: #fff;
      }
    </style>
  </defs>
  <path id="XMLID_21_" class="cls-1" d="M91.6,48.4Z" transform="translate(-50.523 -26.696)"/>
  <path id="XMLID_20_" class="cls-1" d="M74.08,10.292a1.733,1.733,0,0,0-1.211.493,1.655,1.655,0,0,0-.493,1.256v9.552L64.349,10.919h0a2.879,2.879,0,0,0-.583-.448h0A1.474,1.474,0,0,0,63,10.292a1.733,1.733,0,0,0-1.211.493,1.761,1.761,0,0,0-.493,1.256V26.211a1.927,1.927,0,0,0,.493,1.256A1.733,1.733,0,0,0,63,27.96a1.841,1.841,0,0,0,1.256-.493,1.733,1.733,0,0,0,.493-1.211v-9.6l7.982,10.628h0a1.614,1.614,0,0,0,.628.493,1.859,1.859,0,0,0,.717.135,1.733,1.733,0,0,0,1.211-.493,1.761,1.761,0,0,0,.493-1.256V12a1.927,1.927,0,0,0-.493-1.256A1.522,1.522,0,0,0,74.08,10.292Z" transform="translate(-33.811 -5.673)"/>
  <path id="XMLID_19_" class="cls-1" d="M61.6,48.4Z" transform="translate(-33.976 -26.696)"/>
  <path id="XMLID_18_" class="cls-1" d="M61.6,48.445V48.4h0Z" transform="translate(-33.976 -26.696)"/>
  <path id="XMLID_15_" class="cls-1" d="M107.086,21.807A6.682,6.682,0,0,0,103.813,21a6.857,6.857,0,0,0-3.318.807,5.9,5.9,0,0,0-2.287,2.287,7.225,7.225,0,0,0,0,6.637,5.617,5.617,0,0,0,2.287,2.287,7.225,7.225,0,0,0,6.637,0,5.9,5.9,0,0,0,2.287-2.287,7.225,7.225,0,0,0,0-6.637A6.7,6.7,0,0,0,107.086,21.807Zm-1.659,8.52a3.029,3.029,0,0,1-1.57.4,2.918,2.918,0,0,1-1.57-.4,2.726,2.726,0,0,1-1.076-1.166,3.421,3.421,0,0,1-.4-1.7,3.724,3.724,0,0,1,.4-1.749,2.834,2.834,0,0,1,2.646-1.57,2.918,2.918,0,0,1,1.57.4,2.726,2.726,0,0,1,1.076,1.166,3.6,3.6,0,0,1,.4,1.749,3.421,3.421,0,0,1-.4,1.7,3.358,3.358,0,0,1-1.076,1.166" transform="translate(-53.722 -11.583)"/>
  <path id="XMLID_14_" class="cls-1" d="M133.36,33.173a6.845,6.845,0,0,0,3.274.852,6.134,6.134,0,0,0,4.215-1.57h0a1.46,1.46,0,0,0,.448-1.031,1.168,1.168,0,0,0-.179-.673,1.318,1.318,0,0,0-.448-.538h0a1.691,1.691,0,0,0-.942-.314,2.282,2.282,0,0,0-1.166.4h0a2.861,2.861,0,0,1-1.883.583,3.081,3.081,0,0,1-1.614-.4,2.88,2.88,0,0,1-1.076-1.121,3.543,3.543,0,0,1-.4-1.7,3.194,3.194,0,0,1,.852-2.422,2.9,2.9,0,0,1,2.152-.9,3,3,0,0,1,1.166.224,3.072,3.072,0,0,1,.942.673h0a2.879,2.879,0,0,0,.583.448,1.859,1.859,0,0,0,.717.135,1.476,1.476,0,0,0,.852-.269h0a1.546,1.546,0,0,0,.538-.538,1.512,1.512,0,0,0,.224-.762,1.362,1.362,0,0,0-.359-.942h0a6.314,6.314,0,0,0-2.063-1.57,5.871,5.871,0,0,0-2.511-.538,6.511,6.511,0,0,0-3.229.807,5.359,5.359,0,0,0-2.242,2.332,7.133,7.133,0,0,0,0,6.592,5.159,5.159,0,0,0,2.152,2.242" transform="translate(-71.924 -11.693)"/>
  <path id="XMLID_13_" class="cls-1" d="M171.536,10.292a1.733,1.733,0,0,0-1.211.493,1.655,1.655,0,0,0-.493,1.256v9.552l-7.982-10.628h0a2.878,2.878,0,0,0-.583-.448h0a1.474,1.474,0,0,0-.762-.179,1.733,1.733,0,0,0-1.211.493,1.761,1.761,0,0,0-.493,1.256V26.256a1.927,1.927,0,0,0,.493,1.256A1.733,1.733,0,0,0,160.5,28a1.841,1.841,0,0,0,1.256-.493,1.733,1.733,0,0,0,.493-1.211V16.659l7.982,10.628h0a1.614,1.614,0,0,0,.628.493,1.859,1.859,0,0,0,.718.135,1.733,1.733,0,0,0,1.211-.493,1.761,1.761,0,0,0,.493-1.256V12a1.927,1.927,0,0,0-.493-1.256A1.679,1.679,0,0,0,171.536,10.292Z" transform="translate(-87.589 -5.673)"/>
  <path id="XMLID_12_" class="cls-1" d="M189.9,48.4Z" transform="translate(-104.742 -26.696)"/>
  <path id="XMLID_11_" class="cls-1" d="M159.8,48.4Z" transform="translate(-88.14 -26.696)"/>
  <path id="XMLID_8_" class="cls-1" d="M204.886,21.807A6.683,6.683,0,0,0,201.613,21a6.857,6.857,0,0,0-3.318.807,5.9,5.9,0,0,0-2.287,2.287,7.225,7.225,0,0,0,0,6.637,5.617,5.617,0,0,0,2.287,2.287,7.225,7.225,0,0,0,6.637,0,5.9,5.9,0,0,0,2.287-2.287,7.225,7.225,0,0,0,0-6.637A6.7,6.7,0,0,0,204.886,21.807Zm-1.7,8.52a3.029,3.029,0,0,1-1.57.4,2.918,2.918,0,0,1-1.57-.4,2.726,2.726,0,0,1-1.076-1.166,3.421,3.421,0,0,1-.4-1.7,3.724,3.724,0,0,1,.4-1.749,2.834,2.834,0,0,1,2.646-1.57,2.918,2.918,0,0,1,1.57.4,2.726,2.726,0,0,1,1.076,1.166,3.6,3.6,0,0,1,.4,1.749,3.421,3.421,0,0,1-.4,1.7,2.686,2.686,0,0,1-1.076,1.166" transform="translate(-107.666 -11.583)"/>
  <path id="XMLID_7_" class="cls-1" d="M230.56,33.173a6.845,6.845,0,0,0,3.274.852,6.134,6.134,0,0,0,4.215-1.57h0a1.46,1.46,0,0,0,.448-1.031,1.168,1.168,0,0,0-.179-.673,1.318,1.318,0,0,0-.448-.538h0a1.691,1.691,0,0,0-.942-.314,2.282,2.282,0,0,0-1.166.4h0a2.861,2.861,0,0,1-1.883.583,3.081,3.081,0,0,1-1.614-.4,2.881,2.881,0,0,1-1.076-1.121,3.543,3.543,0,0,1-.4-1.7,3.194,3.194,0,0,1,.852-2.422,2.9,2.9,0,0,1,2.152-.9,3,3,0,0,1,1.166.224,3.072,3.072,0,0,1,.942.673h0a2.879,2.879,0,0,0,.583.448,1.859,1.859,0,0,0,.717.135,1.476,1.476,0,0,0,.852-.269h0a1.546,1.546,0,0,0,.538-.538,1.512,1.512,0,0,0,.224-.762,1.362,1.362,0,0,0-.359-.942h0a6.314,6.314,0,0,0-2.063-1.57,5.871,5.871,0,0,0-2.511-.538,6.511,6.511,0,0,0-3.229.807,5.36,5.36,0,0,0-2.242,2.332,7.133,7.133,0,0,0,0,6.592,4.918,4.918,0,0,0,2.152,2.242" transform="translate(-125.536 -11.693)"/>
  <path id="XMLID_3_" class="cls-1" d="M19.955,3.5,7.892.09A2.251,2.251,0,0,0,7.354,0a1.92,1.92,0,0,0-.987.269L.987,3.408A1.976,1.976,0,0,0,0,5.112V20.18a1.991,1.991,0,0,0,1.973,1.973h2.96a2.822,2.822,0,0,0,.762-.269l4.753-2.422a2.987,2.987,0,0,0,.987-.807,1.722,1.722,0,0,0,.4-1.121V9.686h3.049a.851.851,0,0,1,.852.852V21.615a.487.487,0,0,0,.179.4.668.668,0,0,0,.4.179h3.139a1.991,1.991,0,0,0,1.973-1.973V5.381A2.018,2.018,0,0,0,19.955,3.5ZM10.583,18.027a1.466,1.466,0,0,1-.628.493L5.7,20.628V10.314a.532.532,0,0,1,.224-.4.972.972,0,0,1,.628-.224h4.215v7.848A1.33,1.33,0,0,1,10.583,18.027Zm9.686,2.152a.851.851,0,0,1-.852.852H16.861V10.538a1.991,1.991,0,0,0-1.973-1.973H6.547A1.934,1.934,0,0,0,5.2,9.1a1.668,1.668,0,0,0-.583,1.256V21.076H1.973a.851.851,0,0,1-.852-.852V5.112a.849.849,0,0,1,.4-.717L6.906,1.256a.723.723,0,0,1,.4-.135.4.4,0,0,1,.224.045L19.6,4.574a.861.861,0,0,1,.628.807v14.8Z" transform="translate(0)"/>
  <g id="Group_63" data-name="Group 63" transform="translate(114.799 10.401)">
    <path id="Path_3716" data-name="Path 3716" class="cls-1" d="M333.105,34.073c0,.493,0,1.121-.673,1.121s-.762-.628-.762-1.121V29.05c0-1.39.09-4.484-2.466-4.484-2.646,0-3.229,2.242-3.229,4.574v4.978c0,.359,0,1.076-.673,1.076s-.717-.628-.717-1.121V29.1c0-1.211.09-4.44-2.287-4.44-2.422,0-3.408,2.152-3.408,4.484v4.933c0,.538,0,1.166-.673,1.166s-.717-.628-.717-1.166V24.566c0-.493,0-1.166.717-1.166s.673.628.673,1.121v.807a4.207,4.207,0,0,1,3.632-1.928,3.005,3.005,0,0,1,2.96,1.928,3.905,3.905,0,0,1,3.677-1.928,4.3,4.3,0,0,1,2.915,1.076,4.486,4.486,0,0,1,.987,2.915v6.682Z" transform="translate(-289.921 -23.308)"/>
    <circle id="Ellipse_266" data-name="Ellipse 266" class="cls-1" cx="0.762" cy="0.762" r="0.762" transform="translate(0 10.362)"/>
    <g id="Group_62-2" data-name="Group 62" transform="translate(2.812)">
      <path id="Path_3717" data-name="Path 3717" class="cls-1" d="M272.508,25.528a.542.542,0,0,1-.628.583c-.4-.045-.583-.448-.852-.673a4.9,4.9,0,0,0-3.587-.942A4.521,4.521,0,0,0,264.3,26.65a5.037,5.037,0,0,0-.583,2.915,4.5,4.5,0,0,0,4.978,4.35,7.149,7.149,0,0,0,1.345-.269,2.739,2.739,0,0,0,.628-.314,1.189,1.189,0,0,0,.269-.224c.135-.135.179-.269.359-.359a.6.6,0,0,1,.942.583.931.931,0,0,1-.269.448,3.808,3.808,0,0,1-2.108,1.076,6.644,6.644,0,0,1-5.561-1.211,6.084,6.084,0,0,1-1.973-5.471,5.675,5.675,0,0,1,1.48-3.184,5.921,5.921,0,0,1,4.126-1.794,5.377,5.377,0,0,1,4.35,1.7A5.447,5.447,0,0,1,272.508,25.528Z" transform="translate(-262.271 -23.194)"/>
    </g>
    <g id="XMLID_2_" transform="translate(14.35 0.137)">
      <path id="Path_3718" data-name="Path 3718" class="cls-1" d="M296.61,34.531a5.764,5.764,0,0,1-2.915.762,5.645,5.645,0,0,1-2.915-.762,5.254,5.254,0,0,1-2.018-2.063A6.668,6.668,0,0,1,288,29.419a5.615,5.615,0,0,1,5.7-5.919,5.645,5.645,0,0,1,2.915.762,5.373,5.373,0,0,1,2.018,2.108,6.306,6.306,0,0,1,.717,3.094,6.132,6.132,0,0,1-.717,3.049,6.2,6.2,0,0,1-2.018,2.018M293.7,24.711a4.237,4.237,0,0,0-2.287.583,4.181,4.181,0,0,0-1.57,1.614,5.509,5.509,0,0,0,0,4.933,4.181,4.181,0,0,0,1.57,1.614,4.778,4.778,0,0,0,4.574,0h0a3.787,3.787,0,0,0,1.525-1.614,4.9,4.9,0,0,0,.583-2.466,5.186,5.186,0,0,0-.583-2.511,3.787,3.787,0,0,0-1.525-1.614A4.784,4.784,0,0,0,293.7,24.711Z" transform="translate(-288 -23.5)"/>
    </g>
  </g>
</svg>
