<svg xmlns="http://www.w3.org/2000/svg" viewBox="0 0 242 33.702">
  <defs>
    <style>
      .cls-1 {
        fill: #3639b4;
      }

      .cls-2 {
        fill: #4969f2;
      }
    </style>
  </defs>
  <g id="NOCNOC_LOGO" data-name="NOCNOC LOGO" transform="translate(0 0)">
    <path id="XMLID_14_" class="cls-1" d="M77.446,10.2a2.641,2.641,0,0,0-1.846.752,2.685,2.685,0,0,0-.752,1.914V27.286L62.68,11.152h0a4.389,4.389,0,0,0-.889-.684h0A2.165,2.165,0,0,0,60.7,10.2a2.568,2.568,0,0,0-2.6,2.6V34.258a2.568,2.568,0,0,0,2.6,2.6,2.938,2.938,0,0,0,1.914-.752,2.641,2.641,0,0,0,.752-1.846V19.834L75.464,35.9h0a2.46,2.46,0,0,0,.957.752,2.834,2.834,0,0,0,1.094.205,2.568,2.568,0,0,0,2.6-2.6V12.793a2.641,2.641,0,0,0-.752-1.846A2.378,2.378,0,0,0,77.446,10.2Z" transform="translate(-18.382 -3.222)"/>
    <path id="XMLID_11_" class="cls-1" d="M108.6,21.931a10.187,10.187,0,0,0-4.99-1.231,10,10,0,0,0-4.99,1.231,8.563,8.563,0,0,0-3.486,3.486A10.453,10.453,0,0,0,93.9,30.476a10.187,10.187,0,0,0,1.231,4.99,8.563,8.563,0,0,0,3.486,3.486,10.735,10.735,0,0,0,9.981,0,8.995,8.995,0,0,0,3.486-3.486,10.187,10.187,0,0,0,1.231-4.99,10.452,10.452,0,0,0-1.231-5.059A8.995,8.995,0,0,0,108.6,21.931Zm-2.529,12.852a4.618,4.618,0,0,1-2.393.615,4.449,4.449,0,0,1-2.393-.615,4.391,4.391,0,0,1-1.641-1.709,5.792,5.792,0,0,1,0-5.2,5.12,5.12,0,0,1,1.641-1.777,4.618,4.618,0,0,1,2.393-.615,4.449,4.449,0,0,1,2.393.615,4.391,4.391,0,0,1,1.641,1.709,5.4,5.4,0,0,1,.615,2.6,5.215,5.215,0,0,1-.615,2.6,4.155,4.155,0,0,1-1.641,1.777" transform="translate(-29.708 -6.549)"/>
    <path id="XMLID_10_" class="cls-1" d="M130.849,38.884a10.234,10.234,0,0,0,4.99,1.3A9.181,9.181,0,0,0,142.2,37.79h0a2.2,2.2,0,0,0,.684-1.5,1.78,1.78,0,0,0-.273-1.025,2.01,2.01,0,0,0-.684-.82h0a2.578,2.578,0,0,0-1.436-.479,3.478,3.478,0,0,0-1.777.615h0a4.362,4.362,0,0,1-2.871.889,4.872,4.872,0,0,1-2.461-.615,4.391,4.391,0,0,1-1.641-1.709,5.215,5.215,0,0,1-.615-2.6,5.123,5.123,0,0,1,1.231-3.692,4.131,4.131,0,0,1,3.281-1.3,4.573,4.573,0,0,1,1.777.342,3.788,3.788,0,0,1,1.367,1.025h0a2.6,2.6,0,0,0,.889.615,2.834,2.834,0,0,0,1.094.205,2.416,2.416,0,0,0,1.3-.41h0a2.357,2.357,0,0,0,.82-.82,2.3,2.3,0,0,0,.342-1.162,2.076,2.076,0,0,0-.547-1.436h0A9.379,9.379,0,0,0,139.6,21.52a8.95,8.95,0,0,0-3.828-.82,9.925,9.925,0,0,0-4.922,1.231,9.3,9.3,0,0,0-3.418,3.486,10.377,10.377,0,0,0-1.23,4.99,9.925,9.925,0,0,0,1.23,4.922,7.824,7.824,0,0,0,3.418,3.555" transform="translate(-39.928 -6.549)"/>
    <path id="XMLID_9_" class="cls-1" d="M174.178,10.2a2.641,2.641,0,0,0-1.846.752,2.685,2.685,0,0,0-.752,1.914V27.286l-12.1-16.133h0a4.389,4.389,0,0,0-.889-.684h0A2.165,2.165,0,0,0,157.5,10.2a2.568,2.568,0,0,0-2.6,2.6V34.258a2.568,2.568,0,0,0,2.6,2.6,2.938,2.938,0,0,0,1.914-.752,2.641,2.641,0,0,0,.752-1.846V19.834l12.1,16.065h0a2.46,2.46,0,0,0,.957.752,2.834,2.834,0,0,0,1.094.205,2.568,2.568,0,0,0,2.6-2.6V12.793a2.641,2.641,0,0,0-.752-1.846A2.605,2.605,0,0,0,174.178,10.2Z" transform="translate(-49.008 -3.222)"/>
    <path id="XMLID_6_" class="cls-1" d="M205.3,21.931a10.187,10.187,0,0,0-4.99-1.231,10,10,0,0,0-4.99,1.231,8.564,8.564,0,0,0-3.486,3.486,10.452,10.452,0,0,0-1.23,5.059,10.187,10.187,0,0,0,1.23,4.99,8.563,8.563,0,0,0,3.486,3.486,10.735,10.735,0,0,0,9.981,0,8.994,8.994,0,0,0,3.486-3.486,10.187,10.187,0,0,0,1.231-4.99,10.452,10.452,0,0,0-1.231-5.059A8.563,8.563,0,0,0,205.3,21.931Zm-2.529,12.852a4.618,4.618,0,0,1-2.393.615,4.449,4.449,0,0,1-2.393-.615,4.391,4.391,0,0,1-1.641-1.709,5.792,5.792,0,0,1,0-5.2,5.12,5.12,0,0,1,1.641-1.777,4.618,4.618,0,0,1,2.393-.615,4.449,4.449,0,0,1,2.393.615,4.391,4.391,0,0,1,1.641,1.709,5.4,5.4,0,0,1,.615,2.6,5.216,5.216,0,0,1-.615,2.6,4.155,4.155,0,0,1-1.641,1.777" transform="translate(-60.303 -6.549)"/>
    <path id="XMLID_5_" class="cls-1" d="M227.549,38.884a10.235,10.235,0,0,0,4.99,1.3A9.182,9.182,0,0,0,238.9,37.79h0a2.2,2.2,0,0,0,.684-1.5,1.781,1.781,0,0,0-.273-1.025,2.01,2.01,0,0,0-.684-.82h0a2.578,2.578,0,0,0-1.436-.479,3.478,3.478,0,0,0-1.777.615h0a4.362,4.362,0,0,1-2.871.889,4.871,4.871,0,0,1-2.461-.615,4.391,4.391,0,0,1-1.641-1.709,5.216,5.216,0,0,1-.615-2.6,5.123,5.123,0,0,1,1.23-3.692,4.131,4.131,0,0,1,3.281-1.3,4.573,4.573,0,0,1,1.777.342,3.788,3.788,0,0,1,1.367,1.025h0a2.6,2.6,0,0,0,.889.615,2.834,2.834,0,0,0,1.094.205,2.416,2.416,0,0,0,1.3-.41h0a2.356,2.356,0,0,0,.82-.82,2.3,2.3,0,0,0,.342-1.162,2.076,2.076,0,0,0-.547-1.436h0A9.38,9.38,0,0,0,236.3,21.52a8.95,8.95,0,0,0-3.828-.82,9.925,9.925,0,0,0-4.922,1.231,9.3,9.3,0,0,0-3.418,3.486,10.378,10.378,0,0,0-1.23,4.99,9.926,9.926,0,0,0,1.23,4.922,7.824,7.824,0,0,0,3.418,3.555" transform="translate(-70.522 -6.549)"/>
    <circle id="Ellipse_422" data-name="Ellipse 422" class="cls-2" cx="2.188" cy="2.188" r="2.188" transform="translate(170.904 29.327)"/>
    <path id="Path_4525" data-name="Path 4525" class="cls-1" d="M30.284,5.264,11.963.137A3.431,3.431,0,0,0,11.143,0a2.756,2.756,0,0,0-1.5.41L1.5,5.2A2.931,2.931,0,0,0,0,7.793V30.626a3.035,3.035,0,0,0,3.008,3.008H7.52a2.928,2.928,0,0,0,1.162-.41L15.928,29.6a4.554,4.554,0,0,0,1.5-1.231,2.951,2.951,0,0,0,.615-1.777V14.9a.147.147,0,0,1,.137-.137h4.375A1.225,1.225,0,0,1,23.79,16V32.745a.742.742,0,0,0,.273.615,1.018,1.018,0,0,0,.615.273H29.4A3.035,3.035,0,0,0,32.4,30.626V8.2A2.936,2.936,0,0,0,30.284,5.264ZM16.065,26.593a.979.979,0,0,1-.273.684,2.756,2.756,0,0,1-.957.752L8.682,31.1H8.545c-.068,0-.068-.068-.068-.137V15.723a.81.81,0,0,1,.342-.615,1.44,1.44,0,0,1,.889-.342H15.86A.147.147,0,0,1,16,14.9v11.69Zm14.424,4.033a1.225,1.225,0,0,1-1.231,1.231H25.567a.147.147,0,0,1-.137-.137V16a3.035,3.035,0,0,0-3.008-3.008H9.707a3.181,3.181,0,0,0-2.119.82A2.782,2.782,0,0,0,6.7,15.723v16a.147.147,0,0,1-.137.137H2.8a1.225,1.225,0,0,1-1.231-1.231V7.793A1.314,1.314,0,0,1,2.188,6.7l8.135-4.785a1.016,1.016,0,0,1,.615-.137.616.616,0,0,1,.342.068L29.6,7.041A1.172,1.172,0,0,1,30.489,8.2Z" transform="translate(0)"/>
    <g id="Group_5285" data-name="Group 5285" transform="translate(175.826 14.151)">
      <path id="XMLID_2_" class="cls-2" d="M300.1,21.931a10.187,10.187,0,0,0-4.99-1.231,10,10,0,0,0-4.99,1.231,8.564,8.564,0,0,0-3.486,3.486,10.452,10.452,0,0,0-1.23,5.059,10.187,10.187,0,0,0,1.23,4.99,8.564,8.564,0,0,0,3.486,3.486,10.735,10.735,0,0,0,9.981,0,9,9,0,0,0,3.486-3.486,10.187,10.187,0,0,0,1.23-4.99,10.453,10.453,0,0,0-1.23-5.059A8.563,8.563,0,0,0,300.1,21.931Zm-2.529,12.852a4.618,4.618,0,0,1-2.393.615,4.449,4.449,0,0,1-2.393-.615,4.391,4.391,0,0,1-1.641-1.709,5.792,5.792,0,0,1,0-5.2,5.121,5.121,0,0,1,1.641-1.777,4.618,4.618,0,0,1,2.393-.615,4.449,4.449,0,0,1,2.393.615,4.391,4.391,0,0,1,1.641,1.709,5.4,5.4,0,0,1,.615,2.6,5.215,5.215,0,0,1-.615,2.6,4.155,4.155,0,0,1-1.641,1.777" transform="translate(-266.122 -20.7)"/>
      <path id="XMLID_1_" class="cls-2" d="M261.849,38.884a10.234,10.234,0,0,0,4.99,1.3A9.181,9.181,0,0,0,273.2,37.79h0a2.2,2.2,0,0,0,.684-1.5,1.781,1.781,0,0,0-.273-1.025,2.011,2.011,0,0,0-.684-.82h0a2.578,2.578,0,0,0-1.436-.479,3.478,3.478,0,0,0-1.777.615h0a4.362,4.362,0,0,1-2.871.889,4.872,4.872,0,0,1-2.461-.615,4.391,4.391,0,0,1-1.641-1.709,5.215,5.215,0,0,1-.615-2.6,5.123,5.123,0,0,1,1.231-3.692,4.131,4.131,0,0,1,3.281-1.3,4.573,4.573,0,0,1,1.777.342,3.788,3.788,0,0,1,1.367,1.025h0a2.6,2.6,0,0,0,.889.615,2.834,2.834,0,0,0,1.094.205,2.416,2.416,0,0,0,1.3-.41h0a2.356,2.356,0,0,0,.82-.82,2.3,2.3,0,0,0,.342-1.162,2.076,2.076,0,0,0-.547-1.436h0A9.378,9.378,0,0,0,270.6,21.52a8.95,8.95,0,0,0-3.828-.82,9.925,9.925,0,0,0-4.922,1.231,9.3,9.3,0,0,0-3.418,3.486,10.377,10.377,0,0,0-1.231,4.99,9.925,9.925,0,0,0,1.231,4.922,7.824,7.824,0,0,0,3.418,3.555" transform="translate(-257.2 -20.7)"/>
      <path id="Path_4526" data-name="Path 4526" class="cls-2" d="M335.432,20.768a6.949,6.949,0,0,0-5.2,2.119,4.924,4.924,0,0,0-4.375-2.119,4.727,4.727,0,0,0-3.35,1.572,2.524,2.524,0,0,0-2.051-1.641h-.41A2.529,2.529,0,0,0,318,23.3V37.654a2.568,2.568,0,0,0,2.529,2.529h.342a2.591,2.591,0,0,0,2.188-2.6V27.81a2.564,2.564,0,0,1,2.324-2.393,2.483,2.483,0,0,1,2.324,2.666v9.639a2.529,2.529,0,0,0,5.059,0V32.185l.068-4.1a2.44,2.44,0,0,1,2.6-2.6,1.994,1.994,0,0,1,2.119,2.188V37.722a2.568,2.568,0,0,0,2.529,2.529h.342a2.591,2.591,0,0,0,2.188-2.6V28.288C342.542,22.751,338.714,20.768,335.432,20.768Z" transform="translate(-276.436 -20.7)"/>
    </g>
  </g>
</svg>
